<?xml version="1.0" encoding="UTF-8" standalone="no"?>
<!DOCTYPE svg PUBLIC "-//W3C//DTD SVG 1.1//EN"
 "http://www.w3.org/Graphics/SVG/1.1/DTD/svg11.dtd">
<!-- Generated by graphviz version 2.26.3 (20100126.1600)
 -->
<!-- Title: G Pages: 1 -->
<svg width="572pt" height="260pt"
 viewBox="0.00 0.00 572.00 260.00" xmlns="http://www.w3.org/2000/svg" xmlns:xlink="http://www.w3.org/1999/xlink">
<g id="graph1" class="graph" transform="scale(1 1) rotate(0) translate(4 256)">
<title>G</title>
<polygon fill="white" stroke="white" points="-4,5 -4,-256 569,-256 569,5 -4,5"/>
<g id="graph2" class="cluster"><title>cluster_apacheLogParser</title>
<polyline fill="none" stroke="gray" points="406,-8 544,-8 "/>
<path fill="none" stroke="gray" d="M544,-8C550,-8 556,-14 556,-20"/>
<polyline fill="none" stroke="gray" points="556,-20 556,-232 "/>
<path fill="none" stroke="gray" d="M556,-232C556,-238 550,-244 544,-244"/>
<polyline fill="none" stroke="gray" points="544,-244 406,-244 "/>
<path fill="none" stroke="gray" d="M406,-244C400,-244 394,-238 394,-232"/>
<polyline fill="none" stroke="gray" points="394,-232 394,-20 "/>
<path fill="none" stroke="gray" d="M394,-20C394,-14 400,-8 406,-8"/>
<text text-anchor="middle" x="475" y="-230.1" font-family="Times Roman,serif" font-size="11.00" fill="gray">apacheLogParser</text>
</g>
<!-- \\apacheLogParser\\ApacheLogFile -->
<g id="node2" class="node"><title>\\apacheLogParser\\ApacheLogFile</title>
<a xlink:href="db_apacheLogFile.html" xlink:title="ApacheLogFile" target="_parent">
<polygon fill="none" stroke="black" points="527,-214 423,-214 423,-178 527,-178 527,-214"/>
<text text-anchor="middle" x="475" y="-193.1" font-family="Courier,monospace" font-size="11.00">ApacheLogFile</text>
</a>
</g>
<!-- \\apacheLogParser\\ApacheLogRecord -->
<g id="node3" class="node"><title>\\apacheLogParser\\ApacheLogRecord</title>
<a xlink:href="db_apacheLogRecord.html" xlink:title="ApacheLogRecord" target="_parent">
<polygon fill="none" stroke="black" points="534,-160 416,-160 416,-124 534,-124 534,-160"/>
<text text-anchor="middle" x="475" y="-139.1" font-family="Courier,monospace" font-size="11.00">ApacheLogRecord</text>
</a>
</g>
<!-- \\apacheLogParser\\ApacheLogRecordTest -->
<g id="node4" class="node"><title>\\apacheLogParser\\ApacheLogRecordTest</title>
<a xlink:href="db_tests_apacheLogRecordTest.html" xlink:title="ApacheLogRecordTest" target="_parent">
<polygon fill="none" stroke="black" points="547,-106 403,-106 403,-70 547,-70 547,-106"/>
<text text-anchor="middle" x="475" y="-85.1" font-family="Courier,monospace" font-size="11.00">ApacheLogRecordTest</text>
</a>
</g>
<!-- \\PHPUnit_Framework_TestCase -->
<g id="node8" class="node"><title>\\PHPUnit_Framework_TestCase</title>
<ellipse fill="none" stroke="black" cx="165" cy="-61" rx="164.756" ry="18.3848"/>
<text text-anchor="middle" x="165" y="-57.4" font-family="Times Roman,serif" font-size="14.00" fill="gray">\PHPUnit_Framework_TestCase</text>
</g>
<!-- \\apacheLogParser\\ApacheLogRecordTest&#45;&gt;\\PHPUnit_Framework_TestCase -->
<g id="edge4" class="edge"><title>\\apacheLogParser\\ApacheLogRecordTest&#45;&gt;\\PHPUnit_Framework_TestCase</title>
<path fill="none" stroke="black" d="M402.319,-81.6697C372.919,-79.1091 337.953,-76.0636 304.019,-73.1081"/>
<polygon fill="none" stroke="black" points="304.273,-69.6171 294.007,-72.2361 303.665,-76.5907 304.273,-69.6171"/>
</g>
<!-- \\apacheLogParser\\ApacheLogFileTest -->
<g id="node5" class="node"><title>\\apacheLogParser\\ApacheLogFileTest</title>
<a xlink:href="db_tests_ApacheLogFileTest.html" xlink:title="ApacheLogFileTest" target="_parent">
<polygon fill="none" stroke="black" points="540,-52 410,-52 410,-16 540,-16 540,-52"/>
<text text-anchor="middle" x="475" y="-31.1" font-family="Courier,monospace" font-size="11.00">ApacheLogFileTest</text>
</a>
</g>
<!-- \\apacheLogParser\\ApacheLogFileTest&#45;&gt;\\PHPUnit_Framework_TestCase -->
<g id="edge6" class="edge"><title>\\apacheLogParser\\ApacheLogFileTest&#45;&gt;\\PHPUnit_Framework_TestCase</title>
<path fill="none" stroke="black" d="M409.257,-39.726C378.634,-42.3932 340.96,-45.6745 304.449,-48.8545"/>
<polygon fill="none" stroke="black" points="303.847,-45.3936 294.188,-49.7481 304.454,-52.3672 303.847,-45.3936"/>
</g>
</g>
</svg>
